<svg width="21" height="20" viewBox="0 0 21 20" fill="none" xmlns="http://www.w3.org/2000/svg">
<path d="M13.904 13.5C13.904 17.09 10.994 20 7.40399 20C3.81399 20 0.903992 17.09 0.903992 13.5C0.903992 9.91 3.81399 7 7.40399 7C7.57399 7 7.75399 7.01 7.92399 7.02C11.094 7.27 13.634 9.81 13.884 12.98C13.894 13.15 13.904 13.33 13.904 13.5Z" fill="#62637B"/>
<path d="M20.904 6.5C20.904 9.76 18.504 12.45 15.384 12.92V12.86C15.074 8.98 11.924 5.83 8.01398 5.52H7.98398C8.45398 2.4 11.144 0 14.404 0C17.994 0 20.904 2.91 20.904 6.5Z" fill="#62637B"/>
<path d="M4.49399 0H1.90399C1.35399 0 0.903992 0.45 0.903992 1V3.59C0.903992 4.48 1.98399 4.93 2.61399 4.3L5.20399 1.71C5.82399 1.08 5.38399 0 4.49399 0Z" fill="#62637B"/>
<path d="M17.314 20H19.904C20.454 20 20.904 19.55 20.904 19V16.41C20.904 15.52 19.824 15.07 19.194 15.7L16.604 18.29C15.984 18.92 16.424 20 17.314 20Z" fill="#62637B"/>
</svg>
