<svg width="20" height="20" viewBox="0 0 20 20" fill="none" xmlns="http://www.w3.org/2000/svg">
<path d="M14.19 0H10.75V6V6.75V11.75H20V6.75V6V5.81C20 2.17 17.83 0 14.19 0Z" fill="#62637B"/>
<path d="M-3.05176e-05 8.25V13.25V13.75V14.19C-3.05176e-05 17.83 2.16997 20 5.80997 20H9.24997V13.75V13.25V8.25H-3.05176e-05Z" fill="#62637B"/>
<path d="M9.24997 0V6.75H-3.05176e-05V5.81C-3.05176e-05 2.17 2.16997 0 5.80997 0H9.24997Z" fill="#62637B"/>
<path d="M20 13.25V14.19C20 17.83 17.83 20 14.19 20H10.75V13.25H20Z" fill="#62637B"/>
</svg>
