<svg width="37" height="41" viewBox="0 0 37 41" fill="none" xmlns="http://www.w3.org/2000/svg">
<g filter="url(#filter0_i_1_665)">
<path d="M33.1575 29.93L18.5 40.4997L3.84254 29.93C1.82144 28.4855 0.807013 26.594 0.79927 24.7007L0.799225 23.1208H36.2008L36.2008 24.7007C36.193 26.594 35.1786 28.4855 33.1575 29.93Z" fill="url(#paint0_linear_1_665)"/>
<path d="M33.1575 29.93L18.5 40.4997L3.84254 29.93C1.82144 28.4855 0.807013 26.594 0.79927 24.7007L0.799225 23.1208H36.2008L36.2008 24.7007C36.193 26.594 35.1786 28.4855 33.1575 29.93Z" fill="black" fill-opacity="0.3"/>
</g>
<g filter="url(#filter1_i_1_665)">
<path d="M3.84254 28.3486L18.5 38.9183L33.1575 28.3486C37.2152 25.4485 37.2152 20.7464 33.1575 17.8462C29.112 14.9549 22.5607 14.9461 18.5 17.82C14.4394 14.9461 7.88798 14.9549 3.84254 17.8462C-0.215213 20.7464 -0.215213 25.4485 3.84254 28.3486Z" fill="url(#paint1_linear_1_665)"/>
</g>
<g filter="url(#filter2_bi_1_665)">
<path d="M33.1575 22.3424L18.5 32.9121L3.84254 22.3424C1.82144 20.8979 0.807013 19.0063 0.79927 17.113L0.799225 15.5331H36.2008L36.2008 17.113C36.193 19.0063 35.1786 20.8979 33.1575 22.3424Z" fill="url(#paint2_linear_1_665)"/>
</g>
<g filter="url(#filter3_bi_1_665)">
<path d="M3.84254 20.7645L18.5 31.3343L33.1575 20.7645C37.2152 17.8644 37.2152 13.1623 33.1575 10.2622C29.112 7.37084 22.5607 7.36209 18.5 10.2359C14.4394 7.36209 7.88798 7.37084 3.84254 10.2622C-0.215213 13.1623 -0.215213 17.8644 3.84254 20.7645Z" fill="#5D5C7E" fill-opacity="0.6"/>
</g>
<g filter="url(#filter4_bi_1_665)">
<path d="M33.1575 14.7586L18.5 25.3283L3.84254 14.7586C1.82144 13.3141 0.807013 11.4225 0.79927 9.52925L0.799225 7.94934H36.2008L36.2008 9.52925C36.193 11.4225 35.1786 13.3141 33.1575 14.7586Z" fill="url(#paint3_linear_1_665)"/>
</g>
<g filter="url(#filter5_bi_1_665)">
<path d="M3.84254 13.1774L18.5 23.7472L33.1575 13.1774C37.2152 10.2773 37.2152 5.57525 33.1575 2.67511C29.112 -0.216254 22.5607 -0.22501 18.5 2.64884C14.4394 -0.22501 7.88798 -0.216254 3.84254 2.67511C-0.215213 5.57525 -0.215213 10.2773 3.84254 13.1774Z" fill="#5D5C7E" fill-opacity="0.6"/>
</g>
<defs>
<filter id="filter0_i_1_665" x="0.799225" y="22.6208" width="35.4016" height="17.879" filterUnits="userSpaceOnUse" color-interpolation-filters="sRGB">
<feFlood flood-opacity="0" result="BackgroundImageFix"/>
<feBlend mode="normal" in="SourceGraphic" in2="BackgroundImageFix" result="shape"/>
<feColorMatrix in="SourceAlpha" type="matrix" values="0 0 0 0 0 0 0 0 0 0 0 0 0 0 0 0 0 0 127 0" result="hardAlpha"/>
<feOffset dy="-0.5"/>
<feGaussianBlur stdDeviation="0.5"/>
<feComposite in2="hardAlpha" operator="arithmetic" k2="-1" k3="1"/>
<feColorMatrix type="matrix" values="0 0 0 0 0 0 0 0 0 0 0 0 0 0 0 0 0 0 0.15 0"/>
<feBlend mode="darken" in2="shape" result="effect1_innerShadow_1_665"/>
</filter>
<filter id="filter1_i_1_665" x="0.799225" y="15.6711" width="35.4016" height="23.7472" filterUnits="userSpaceOnUse" color-interpolation-filters="sRGB">
<feFlood flood-opacity="0" result="BackgroundImageFix"/>
<feBlend mode="normal" in="SourceGraphic" in2="BackgroundImageFix" result="shape"/>
<feColorMatrix in="SourceAlpha" type="matrix" values="0 0 0 0 0 0 0 0 0 0 0 0 0 0 0 0 0 0 127 0" result="hardAlpha"/>
<feOffset dy="0.5"/>
<feGaussianBlur stdDeviation="0.5"/>
<feComposite in2="hardAlpha" operator="arithmetic" k2="-1" k3="1"/>
<feColorMatrix type="matrix" values="0 0 0 0 0 0 0 0 0 0 0 0 0 0 0 0 0 0 0.1 0"/>
<feBlend mode="darken" in2="shape" result="effect1_innerShadow_1_665"/>
</filter>
<filter id="filter2_bi_1_665" x="-19.2008" y="-4.46686" width="75.4016" height="57.379" filterUnits="userSpaceOnUse" color-interpolation-filters="sRGB">
<feFlood flood-opacity="0" result="BackgroundImageFix"/>
<feGaussianBlur in="BackgroundImageFix" stdDeviation="10"/>
<feComposite in2="SourceAlpha" operator="in" result="effect1_backgroundBlur_1_665"/>
<feBlend mode="normal" in="SourceGraphic" in2="effect1_backgroundBlur_1_665" result="shape"/>
<feColorMatrix in="SourceAlpha" type="matrix" values="0 0 0 0 0 0 0 0 0 0 0 0 0 0 0 0 0 0 127 0" result="hardAlpha"/>
<feOffset dy="-0.5"/>
<feGaussianBlur stdDeviation="0.5"/>
<feComposite in2="hardAlpha" operator="arithmetic" k2="-1" k3="1"/>
<feColorMatrix type="matrix" values="0 0 0 0 0.341176 0 0 0 0 0.352941 0 0 0 0 0.580392 0 0 0 0.25 0"/>
<feBlend mode="darken" in2="shape" result="effect2_innerShadow_1_665"/>
</filter>
<filter id="filter3_bi_1_665" x="-4.20078" y="3.0871" width="45.4016" height="33.2472" filterUnits="userSpaceOnUse" color-interpolation-filters="sRGB">
<feFlood flood-opacity="0" result="BackgroundImageFix"/>
<feGaussianBlur in="BackgroundImageFix" stdDeviation="2.5"/>
<feComposite in2="SourceAlpha" operator="in" result="effect1_backgroundBlur_1_665"/>
<feBlend mode="normal" in="SourceGraphic" in2="effect1_backgroundBlur_1_665" result="shape"/>
<feColorMatrix in="SourceAlpha" type="matrix" values="0 0 0 0 0 0 0 0 0 0 0 0 0 0 0 0 0 0 127 0" result="hardAlpha"/>
<feOffset dy="0.5"/>
<feGaussianBlur stdDeviation="0.5"/>
<feComposite in2="hardAlpha" operator="arithmetic" k2="-1" k3="1"/>
<feColorMatrix type="matrix" values="0 0 0 0 0.172549 0 0 0 0 0.168627 0 0 0 0 0.258824 0 0 0 0.1 0"/>
<feBlend mode="darken" in2="shape" result="effect2_innerShadow_1_665"/>
</filter>
<filter id="filter4_bi_1_665" x="-19.2008" y="-12.0507" width="75.4016" height="57.379" filterUnits="userSpaceOnUse" color-interpolation-filters="sRGB">
<feFlood flood-opacity="0" result="BackgroundImageFix"/>
<feGaussianBlur in="BackgroundImageFix" stdDeviation="10"/>
<feComposite in2="SourceAlpha" operator="in" result="effect1_backgroundBlur_1_665"/>
<feBlend mode="normal" in="SourceGraphic" in2="effect1_backgroundBlur_1_665" result="shape"/>
<feColorMatrix in="SourceAlpha" type="matrix" values="0 0 0 0 0 0 0 0 0 0 0 0 0 0 0 0 0 0 127 0" result="hardAlpha"/>
<feOffset dy="-0.5"/>
<feGaussianBlur stdDeviation="0.5"/>
<feComposite in2="hardAlpha" operator="arithmetic" k2="-1" k3="1"/>
<feColorMatrix type="matrix" values="0 0 0 0 0.341176 0 0 0 0 0.352941 0 0 0 0 0.580392 0 0 0 0.25 0"/>
<feBlend mode="darken" in2="shape" result="effect2_innerShadow_1_665"/>
</filter>
<filter id="filter5_bi_1_665" x="-4.20078" y="-4.5" width="45.4016" height="33.2472" filterUnits="userSpaceOnUse" color-interpolation-filters="sRGB">
<feFlood flood-opacity="0" result="BackgroundImageFix"/>
<feGaussianBlur in="BackgroundImageFix" stdDeviation="2.5"/>
<feComposite in2="SourceAlpha" operator="in" result="effect1_backgroundBlur_1_665"/>
<feBlend mode="normal" in="SourceGraphic" in2="effect1_backgroundBlur_1_665" result="shape"/>
<feColorMatrix in="SourceAlpha" type="matrix" values="0 0 0 0 0 0 0 0 0 0 0 0 0 0 0 0 0 0 127 0" result="hardAlpha"/>
<feOffset dy="0.5"/>
<feGaussianBlur stdDeviation="0.5"/>
<feComposite in2="hardAlpha" operator="arithmetic" k2="-1" k3="1"/>
<feColorMatrix type="matrix" values="0 0 0 0 0.172549 0 0 0 0 0.168627 0 0 0 0 0.258824 0 0 0 0.1 0"/>
<feBlend mode="darken" in2="shape" result="effect2_innerShadow_1_665"/>
</filter>
<linearGradient id="paint0_linear_1_665" x1="1.44056" y1="37.0239" x2="36.2008" y2="37.0239" gradientUnits="userSpaceOnUse">
<stop stop-color="#FF7B7B"/>
<stop offset="1" stop-color="#D93990"/>
</linearGradient>
<linearGradient id="paint1_linear_1_665" x1="35.9213" y1="27.0325" x2="2.00868" y2="27.1815" gradientUnits="userSpaceOnUse">
<stop stop-color="#9644FF"/>
<stop offset="0.505208" stop-color="#F33484"/>
<stop offset="1" stop-color="#FF7A7A"/>
</linearGradient>
<linearGradient id="paint2_linear_1_665" x1="18.5" y1="15.5331" x2="18.9256" y2="25.1064" gradientUnits="userSpaceOnUse">
<stop stop-color="#3A3956" stop-opacity="0"/>
<stop offset="1" stop-color="#3A3956"/>
</linearGradient>
<linearGradient id="paint3_linear_1_665" x1="18.5" y1="7.94934" x2="18.9256" y2="17.5226" gradientUnits="userSpaceOnUse">
<stop stop-color="#3A3956" stop-opacity="0"/>
<stop offset="1" stop-color="#3A3956"/>
</linearGradient>
</defs>
</svg>
