<svg width="25" height="24" viewBox="0 0 25 24" fill="none" xmlns="http://www.w3.org/2000/svg">
<path fill-rule="evenodd" clip-rule="evenodd" d="M20.808 13.3102C19.9599 13.6581 19.0314 13.85 18.058 13.85C14.0539 13.85 10.808 10.604 10.808 6.59997C10.808 5.14293 11.2378 3.78629 11.9775 2.6499H6.80798C3.49428 2.6499 0.807983 5.33619 0.807983 8.6499V17.6499C0.807983 20.9636 3.49428 23.6499 6.80798 23.6499H14.808C18.1217 23.6499 20.808 20.9636 20.808 17.6499V13.3102ZM3.60779 14.7676C3.60779 14.3258 3.96596 13.9676 4.40779 13.9676H10.73C11.1719 13.9676 11.53 14.3258 11.53 14.7676C11.53 15.2095 11.1719 15.5676 10.73 15.5676H4.40779C3.96596 15.5676 3.60779 15.2095 3.60779 14.7676ZM4.40779 18.0756C3.96596 18.0756 3.60779 18.4337 3.60779 18.8756C3.60779 19.3174 3.96596 19.6756 4.40779 19.6756H13.3708C13.8126 19.6756 14.1708 19.3174 14.1708 18.8756C14.1708 18.4337 13.8126 18.0756 13.3708 18.0756H4.40779Z" fill="#62637B"/>
<path fill-rule="evenodd" clip-rule="evenodd" d="M18.178 12.09C21.4199 12.09 24.048 9.46189 24.048 6.21998C24.048 2.97806 21.4199 0.349976 18.178 0.349976C14.9361 0.349976 12.308 2.97806 12.308 6.21998C12.308 9.46189 14.9361 12.09 18.178 12.09ZM18.558 3.34998C18.558 2.93576 18.2222 2.59998 17.808 2.59998C17.3938 2.59998 17.058 2.93576 17.058 3.34998V5.7176C17.058 6.68357 17.5648 7.57871 18.3931 8.0757L19.9221 8.9931C20.2773 9.20621 20.738 9.09103 20.9511 8.73585C21.1642 8.38066 21.049 7.91997 20.6939 7.70686L19.1649 6.78946C18.7884 6.56356 18.558 6.15667 18.558 5.7176V3.34998Z" fill="#62637B"/>
</svg>
