<svg width="20" height="20" viewBox="0 0 20 20" fill="none" xmlns="http://www.w3.org/2000/svg">
<path d="M3.9249 15.1583C4.00823 15.1917 4.08323 15.2083 4.16656 15.2083H12.7249C13.0666 15.2083 13.3499 14.925 13.3499 14.5833C13.3499 14.2417 13.0666 13.9583 12.7249 13.9583H5.6749L16.2749 3.35835C16.5166 3.11668 16.5166 2.71668 16.2749 2.47501C16.0332 2.23335 15.6332 2.23335 15.3916 2.47501L4.79156 13.075V6.02501C4.79156 5.68335 4.50823 5.40001 4.16656 5.40001C3.8249 5.40001 3.54156 5.68335 3.54156 6.02501V14.5833C3.54156 14.6667 3.55823 14.7417 3.59156 14.825C3.6499 14.975 3.7749 15.1 3.9249 15.1583Z" fill="white" stroke="white" stroke-width="0.5"/>
<path d="M17.0832 17.7085H2.91656C2.5749 17.7085 2.29156 17.9918 2.29156 18.3335C2.29156 18.6751 2.5749 18.9585 2.91656 18.9585H17.0832C17.4249 18.9585 17.7082 18.6751 17.7082 18.3335C17.7082 17.9918 17.4249 17.7085 17.0832 17.7085Z" fill="white" stroke="white" stroke-width="0.5"/>
</svg>
