<svg width="20" height="20" viewBox="0 0 20 20" fill="none" xmlns="http://www.w3.org/2000/svg">
<path fill-rule="evenodd" clip-rule="evenodd" d="M2.22245 8.88912C2.22245 5.21245 5.21245 2.22245 8.88912 2.22245C12.5658 2.22245 15.5558 5.21245 15.5558 8.88912C15.5558 12.5658 12.5658 15.5558 8.88912 15.5558C5.21245 15.5558 2.22245 12.5658 2.22245 8.88912ZM19.6744 18.1033L15.9022 14.33C17.0722 12.8256 17.7778 10.94 17.7778 8.88889C17.7778 3.98778 13.79 0 8.88889 0C3.98778 0 0 3.98778 0 8.88889C0 13.79 3.98778 17.7778 8.88889 17.7778C10.94 17.7778 12.8256 17.0722 14.33 15.9022L18.1033 19.6744C18.32 19.8911 18.6044 20 18.8889 20C19.1733 20 19.4578 19.8911 19.6744 19.6744C20.1089 19.24 20.1089 18.5378 19.6744 18.1033Z" fill="white"/>
</svg>
