<svg width="20" height="21" viewBox="0 0 20 21" fill="none" xmlns="http://www.w3.org/2000/svg">
<path d="M2.91634 18.2085H17.083C17.4247 18.2085 17.708 18.4918 17.708 18.8335C17.708 19.1752 17.4247 19.4585 17.083 19.4585H2.91634C2.57468 19.4585 2.29134 19.1752 2.29134 18.8335C2.29134 18.4918 2.57468 18.2085 2.91634 18.2085Z" fill="white" stroke="white" stroke-width="0.5"/>
<path d="M15.833 12.5998C15.4913 12.5998 15.208 12.3165 15.208 11.9748V4.92484L4.60801 15.5248C4.48301 15.6498 4.32467 15.7082 4.16634 15.7082C4.00801 15.7082 3.84967 15.6498 3.72467 15.5248C3.48301 15.2832 3.48301 14.8832 3.72467 14.6415L14.3247 4.0415H7.27467C6.93301 4.0415 6.64967 3.75817 6.64967 3.4165C6.64967 3.07484 6.93301 2.7915 7.27467 2.7915H15.833C15.9163 2.7915 15.9913 2.80817 16.0747 2.8415C16.2247 2.89984 16.3497 3.02484 16.408 3.17484C16.4413 3.25817 16.458 3.33317 16.458 3.4165V11.9748C16.458 12.3165 16.1747 12.5998 15.833 12.5998Z" fill="white" stroke="white" stroke-width="0.5"/>
</svg>
