<svg width="30" height="31" viewBox="0 0 30 31" fill="none" xmlns="http://www.w3.org/2000/svg">
<path d="M26.625 9.97498H19.65C19.1625 9.97498 18.775 9.58748 18.775 9.09998C18.775 8.61248 19.1625 8.22498 19.65 8.22498H26.625C27.1125 8.22498 27.5 8.61248 27.5 9.09998C27.5 9.58748 27.1125 9.97498 26.625 9.97498Z" fill="#62637B"/>
<path d="M8.025 9.97498H3.375C2.8875 9.97498 2.5 9.58748 2.5 9.09998C2.5 8.61248 2.8875 8.22498 3.375 8.22498H8.025C8.5125 8.22498 8.9 8.61248 8.9 9.09998C8.9 9.58748 8.5 9.97498 8.025 9.97498Z" fill="#62637B"/>
<path d="M12.675 14.0375C15.4019 14.0375 17.6125 11.8269 17.6125 9.09997C17.6125 6.37307 15.4019 4.16248 12.675 4.16248C9.9481 4.16248 7.7375 6.37307 7.7375 9.09997C7.7375 11.8269 9.9481 14.0375 12.675 14.0375Z" fill="#62637B"/>
<path d="M26.625 22.7625H21.975C21.4875 22.7625 21.1 22.375 21.1 21.8875C21.1 21.4 21.4875 21.0125 21.975 21.0125H26.625C27.1125 21.0125 27.5 21.4 27.5 21.8875C27.5 22.375 27.1125 22.7625 26.625 22.7625Z" fill="#62637B"/>
<path d="M10.35 22.7625H3.375C2.8875 22.7625 2.5 22.375 2.5 21.8875C2.5 21.4 2.8875 21.0125 3.375 21.0125H10.35C10.8375 21.0125 11.225 21.4 11.225 21.8875C11.225 22.375 10.825 22.7625 10.35 22.7625Z" fill="#62637B"/>
<path d="M17.325 26.8375C20.0519 26.8375 22.2625 24.6269 22.2625 21.9C22.2625 19.1731 20.0519 16.9625 17.325 16.9625C14.5981 16.9625 12.3875 19.1731 12.3875 21.9C12.3875 24.6269 14.5981 26.8375 17.325 26.8375Z" fill="#62637B"/>
</svg>
