<svg width="30" height="31" viewBox="0 0 30 31" fill="none" xmlns="http://www.w3.org/2000/svg">
<path d="M23.175 5.64999L16.3 3.07499C15.5875 2.81249 14.425 2.81249 13.7125 3.07499L6.8375 5.64999C5.5125 6.14999 4.4375 7.69999 4.4375 9.11249V19.2375C4.4375 20.25 5.1 21.5875 5.9125 22.1875L12.7875 27.325C14 28.2375 15.9875 28.2375 17.2 27.325L24.075 22.1875C24.8875 21.575 25.55 20.25 25.55 19.2375V9.11249C25.5625 7.69999 24.4875 6.14999 23.175 5.64999ZM19.35 12.65L13.975 18.025C13.7875 18.2125 13.55 18.3 13.3125 18.3C13.075 18.3 12.8375 18.2125 12.65 18.025L10.65 16C10.2875 15.6375 10.2875 15.0375 10.65 14.675C11.0125 14.3125 11.6125 14.3125 11.975 14.675L13.325 16.025L18.0375 11.3125C18.4 10.95 19 10.95 19.3625 11.3125C19.725 11.675 19.725 12.2875 19.35 12.65Z" fill="#62637B"/>
</svg>
