<svg width="41" height="39" viewBox="0 0 41 39" fill="none" xmlns="http://www.w3.org/2000/svg">
<g filter="url(#filter0_i_1_692)">
<path d="M23.6146 37.4272L39.3677 29.3458C40.1216 28.9688 40.4991 28.2428 40.5 27.5164V26.4922H0.5V27.5164C0.500932 28.2428 0.878366 28.9688 1.6323 29.3458L17.3854 37.4272C19.3461 38.4075 21.6539 38.4075 23.6146 37.4272Z" fill="url(#paint0_linear_1_692)"/>
<path d="M23.6146 37.4272L39.3677 29.3458C40.1216 28.9688 40.4991 28.2428 40.5 27.5164V26.4922H0.5V27.5164C0.500932 28.2428 0.878366 28.9688 1.6323 29.3458L17.3854 37.4272C19.3461 38.4075 21.6539 38.4075 23.6146 37.4272Z" fill="black" fill-opacity="0.3"/>
</g>
<g filter="url(#filter1_i_1_692)">
<path d="M17.3854 16.7843C19.3461 15.804 21.6539 15.804 23.6146 16.7843L39.3677 24.6609C40.8774 25.4158 40.8774 27.5702 39.3677 28.3251L23.6146 36.2017C21.6539 37.182 19.3461 37.182 17.3854 36.2017L1.6323 28.3251C0.122567 27.5702 0.122565 25.4158 1.6323 24.6609L17.3854 16.7843Z" fill="url(#paint1_linear_1_692)"/>
</g>
<g opacity="0.95">
<g filter="url(#filter2_bi_1_692)">
<path d="M17.3854 10.0337C19.3461 9.05332 21.6539 9.05332 23.6146 10.0337L39.3677 17.9102C40.8774 18.6651 40.8774 20.8196 39.3677 21.5744L23.6146 29.451C21.6539 30.4313 19.3461 30.4313 17.3854 29.451L1.6323 21.5744C0.122567 20.8196 0.122565 18.6651 1.6323 17.9102L17.3854 10.0337Z" fill="#5D5C7E" fill-opacity="0.6"/>
</g>
<g filter="url(#filter3_i_1_692)">
<path d="M0.5 19.7413V20.7655C0.500932 21.4919 0.878366 22.218 1.6323 22.5949L17.3854 30.6763C19.3461 31.6567 21.6539 31.6567 23.6146 30.6763L39.3677 22.5949C40.1216 22.218 40.4991 21.4919 40.5 20.7655V19.7458C40.4985 20.4716 40.121 21.1968 39.3677 21.5734L23.6146 29.45C21.6539 30.4303 19.3461 30.4303 17.3854 29.45L1.6323 21.5734C0.877436 21.196 0.500001 20.4687 0.5 19.7413Z" fill="#3A3956"/>
</g>
</g>
<g filter="url(#filter4_bi_1_692)">
<path d="M17.3854 1.57284C19.3461 0.592502 21.6539 0.592501 23.6146 1.57284L39.3677 9.4494C40.8774 10.2043 40.8774 12.3587 39.3677 13.1136L23.6146 20.9902C21.6539 21.9705 19.3461 21.9705 17.3854 20.9902L1.6323 13.1136C0.122567 12.3587 0.122565 10.2043 1.6323 9.4494L17.3854 1.57284Z" fill="#5D5C7E" fill-opacity="0.6"/>
</g>
<g filter="url(#filter5_bi_1_692)">
<path d="M0.5 11.2806V12.3048C0.500932 13.0313 0.878366 13.7573 1.6323 14.1342L17.3854 22.2156C19.3461 23.196 21.6539 23.196 23.6146 22.2156L39.3677 14.1342C40.1216 13.7573 40.4991 13.0313 40.5 12.3048V11.2851C40.4985 12.0109 40.121 12.7361 39.3677 13.1127L23.6146 20.9893C21.6539 21.9696 19.3461 21.9696 17.3854 20.9893L1.6323 13.1127C0.877436 12.7353 0.500001 12.008 0.5 11.2806Z" fill="#3A3956"/>
</g>
<defs>
<filter id="filter0_i_1_692" x="0.5" y="25.9922" width="40" height="12.1702" filterUnits="userSpaceOnUse" color-interpolation-filters="sRGB">
<feFlood flood-opacity="0" result="BackgroundImageFix"/>
<feBlend mode="normal" in="SourceGraphic" in2="BackgroundImageFix" result="shape"/>
<feColorMatrix in="SourceAlpha" type="matrix" values="0 0 0 0 0 0 0 0 0 0 0 0 0 0 0 0 0 0 127 0" result="hardAlpha"/>
<feOffset dy="-0.5"/>
<feGaussianBlur stdDeviation="0.5"/>
<feComposite in2="hardAlpha" operator="arithmetic" k2="-1" k3="1"/>
<feColorMatrix type="matrix" values="0 0 0 0 0 0 0 0 0 0 0 0 0 0 0 0 0 0 0.15 0"/>
<feBlend mode="darken" in2="shape" result="effect1_innerShadow_1_692"/>
</filter>
<filter id="filter1_i_1_692" x="0.5" y="16.0491" width="40" height="21.3878" filterUnits="userSpaceOnUse" color-interpolation-filters="sRGB">
<feFlood flood-opacity="0" result="BackgroundImageFix"/>
<feBlend mode="normal" in="SourceGraphic" in2="BackgroundImageFix" result="shape"/>
<feColorMatrix in="SourceAlpha" type="matrix" values="0 0 0 0 0 0 0 0 0 0 0 0 0 0 0 0 0 0 127 0" result="hardAlpha"/>
<feOffset dy="0.5"/>
<feGaussianBlur stdDeviation="0.5"/>
<feComposite in2="hardAlpha" operator="arithmetic" k2="-1" k3="1"/>
<feColorMatrix type="matrix" values="0 0 0 0 0 0 0 0 0 0 0 0 0 0 0 0 0 0 0.1 0"/>
<feBlend mode="darken" in2="shape" result="effect1_innerShadow_1_692"/>
</filter>
<filter id="filter2_bi_1_692" x="-4.5" y="4.2984" width="50" height="30.8878" filterUnits="userSpaceOnUse" color-interpolation-filters="sRGB">
<feFlood flood-opacity="0" result="BackgroundImageFix"/>
<feGaussianBlur in="BackgroundImageFix" stdDeviation="2.5"/>
<feComposite in2="SourceAlpha" operator="in" result="effect1_backgroundBlur_1_692"/>
<feBlend mode="normal" in="SourceGraphic" in2="effect1_backgroundBlur_1_692" result="shape"/>
<feColorMatrix in="SourceAlpha" type="matrix" values="0 0 0 0 0 0 0 0 0 0 0 0 0 0 0 0 0 0 127 0" result="hardAlpha"/>
<feOffset dy="0.5"/>
<feGaussianBlur stdDeviation="0.5"/>
<feComposite in2="hardAlpha" operator="arithmetic" k2="-1" k3="1"/>
<feColorMatrix type="matrix" values="0 0 0 0 0.172549 0 0 0 0 0.168627 0 0 0 0 0.258824 0 0 0 0.1 0"/>
<feBlend mode="darken" in2="shape" result="effect2_innerShadow_1_692"/>
</filter>
<filter id="filter3_i_1_692" x="0.5" y="19.2413" width="40" height="12.1702" filterUnits="userSpaceOnUse" color-interpolation-filters="sRGB">
<feFlood flood-opacity="0" result="BackgroundImageFix"/>
<feBlend mode="normal" in="SourceGraphic" in2="BackgroundImageFix" result="shape"/>
<feColorMatrix in="SourceAlpha" type="matrix" values="0 0 0 0 0 0 0 0 0 0 0 0 0 0 0 0 0 0 127 0" result="hardAlpha"/>
<feOffset dy="-0.5"/>
<feGaussianBlur stdDeviation="0.5"/>
<feComposite in2="hardAlpha" operator="arithmetic" k2="-1" k3="1"/>
<feColorMatrix type="matrix" values="0 0 0 0 0.341176 0 0 0 0 0.352941 0 0 0 0 0.580392 0 0 0 0.25 0"/>
<feBlend mode="darken" in2="shape" result="effect1_innerShadow_1_692"/>
</filter>
<filter id="filter4_bi_1_692" x="-4.5" y="-4.16241" width="50" height="30.8878" filterUnits="userSpaceOnUse" color-interpolation-filters="sRGB">
<feFlood flood-opacity="0" result="BackgroundImageFix"/>
<feGaussianBlur in="BackgroundImageFix" stdDeviation="2.5"/>
<feComposite in2="SourceAlpha" operator="in" result="effect1_backgroundBlur_1_692"/>
<feBlend mode="normal" in="SourceGraphic" in2="effect1_backgroundBlur_1_692" result="shape"/>
<feColorMatrix in="SourceAlpha" type="matrix" values="0 0 0 0 0 0 0 0 0 0 0 0 0 0 0 0 0 0 127 0" result="hardAlpha"/>
<feOffset dy="0.5"/>
<feGaussianBlur stdDeviation="0.5"/>
<feComposite in2="hardAlpha" operator="arithmetic" k2="-1" k3="1"/>
<feColorMatrix type="matrix" values="0 0 0 0 0.172549 0 0 0 0 0.168627 0 0 0 0 0.258824 0 0 0 0.1 0"/>
<feBlend mode="darken" in2="shape" result="effect2_innerShadow_1_692"/>
</filter>
<filter id="filter5_bi_1_692" x="-19.5" y="-8.71936" width="80" height="51.6702" filterUnits="userSpaceOnUse" color-interpolation-filters="sRGB">
<feFlood flood-opacity="0" result="BackgroundImageFix"/>
<feGaussianBlur in="BackgroundImageFix" stdDeviation="10"/>
<feComposite in2="SourceAlpha" operator="in" result="effect1_backgroundBlur_1_692"/>
<feBlend mode="normal" in="SourceGraphic" in2="effect1_backgroundBlur_1_692" result="shape"/>
<feColorMatrix in="SourceAlpha" type="matrix" values="0 0 0 0 0 0 0 0 0 0 0 0 0 0 0 0 0 0 127 0" result="hardAlpha"/>
<feOffset dy="-0.5"/>
<feGaussianBlur stdDeviation="0.5"/>
<feComposite in2="hardAlpha" operator="arithmetic" k2="-1" k3="1"/>
<feColorMatrix type="matrix" values="0 0 0 0 0.341176 0 0 0 0 0.352941 0 0 0 0 0.580392 0 0 0 0.25 0"/>
<feBlend mode="darken" in2="shape" result="effect2_innerShadow_1_692"/>
</filter>
<linearGradient id="paint0_linear_1_692" x1="1.22464" y1="35.8284" x2="40.5" y2="35.8284" gradientUnits="userSpaceOnUse">
<stop stop-color="#FF7B7B"/>
<stop offset="1" stop-color="#D93990"/>
</linearGradient>
<linearGradient id="paint1_linear_1_692" x1="40.1842" y1="26.2574" x2="1.86699" y2="26.4691" gradientUnits="userSpaceOnUse">
<stop stop-color="#9644FF"/>
<stop offset="0.505208" stop-color="#F33484"/>
<stop offset="1" stop-color="#FF7A7A"/>
</linearGradient>
</defs>
</svg>
