<svg width="30" height="31" viewBox="0 0 30 31" fill="none" xmlns="http://www.w3.org/2000/svg">
<path d="M23.0875 21.5375L23.575 25.4875C23.7 26.525 22.5875 27.25 21.7 26.7125L17.375 24.1375C17.075 23.9625 17 23.5875 17.1625 23.2875C17.7875 22.1375 18.125 20.8375 18.125 19.5375C18.125 14.9625 14.2 11.2375 9.37499 11.2375C8.38749 11.2375 7.42499 11.3875 6.52499 11.6875C6.06249 11.8375 5.61249 11.4125 5.72499 10.9375C6.86249 6.3875 11.2375 3 16.4625 3C22.5625 3 27.5 7.6125 27.5 13.3C27.5 16.675 25.7625 19.6625 23.0875 21.5375Z" fill="#62637B"/>
<path d="M16.25 19.5375C16.25 21.025 15.7 22.4 14.775 23.4875C13.5375 24.9875 11.575 25.95 9.375 25.95L6.1125 27.8875C5.5625 28.225 4.8625 27.7625 4.9375 27.125L5.25 24.6625C3.575 23.5 2.5 21.6375 2.5 19.5375C2.5 17.3375 3.675 15.4 5.475 14.25C6.5875 13.525 7.925 13.1125 9.375 13.1125C13.175 13.1125 16.25 15.9875 16.25 19.5375Z" fill="#62637B"/>
</svg>
