<svg width="10" height="10" viewBox="0 0 10 10" fill="none" xmlns="http://www.w3.org/2000/svg">
<mask id="mask0_214_278" style="mask-type:alpha" maskUnits="userSpaceOnUse" x="0" y="0" width="10" height="10">
<rect width="10" height="10" fill="#D9D9D9"/>
</mask>
<g mask="url(#mask0_214_278)">
<path d="M5.95252 7.9183C5.5527 8.45691 4.74642 8.45691 4.34661 7.9183L1.87466 4.58821C1.38485 3.92836 1.85584 2.99217 2.67761 2.99217L7.62151 2.99217C8.44328 2.99217 8.91428 3.92836 8.42447 4.58821L5.95252 7.9183Z" fill="#A2A0B7"/>
<path d="M5.95252 7.9183C5.5527 8.45691 4.74642 8.45691 4.34661 7.9183L1.87466 4.58821C1.38485 3.92836 1.85584 2.99217 2.67761 2.99217L7.62151 2.99217C8.44328 2.99217 8.91428 3.92836 8.42447 4.58821L5.95252 7.9183Z" fill="#A2A0B7"/>
</g>
</svg>
