<svg width="22" height="21" viewBox="0 0 22 21" fill="none" xmlns="http://www.w3.org/2000/svg">
<path d="M21.1895 12.7767V13.86C21.1895 14.1525 20.962 14.3908 20.6587 14.4017H19.077C18.5028 14.4017 17.9828 13.9792 17.9395 13.4158C17.907 13.08 18.037 12.7658 18.2537 12.5492C18.4487 12.3433 18.7195 12.235 19.012 12.235H20.6478C20.962 12.2458 21.1895 12.4842 21.1895 12.7767Z" fill="#62637B"/>
<path d="M17.4412 11.7475C16.8995 12.2783 16.6395 13.0692 16.8562 13.8925C17.1378 14.9 18.1237 15.5392 19.1637 15.5392H20.1062C20.702 15.5392 21.1895 16.0267 21.1895 16.6225V16.8283C21.1895 19.0708 19.3587 20.9017 17.1162 20.9017H4.6795C2.437 20.9017 0.606171 19.0708 0.606171 16.8283V9.53751C0.606171 8.20501 1.24534 7.02417 2.23117 6.28751C2.91367 5.76751 3.75867 5.46417 4.6795 5.46417H17.1162C19.3587 5.46417 21.1895 7.29501 21.1895 9.53751V10.0142C21.1895 10.61 20.702 11.0975 20.1062 11.0975H19.0012C18.3945 11.0975 17.842 11.3358 17.4412 11.7475Z" fill="#62637B"/>
<path d="M15.502 3.22166C15.7945 3.51416 15.5453 3.96916 15.1337 3.96916L6.81366 3.95832C6.33699 3.95832 6.08782 3.37332 6.43449 3.03749L8.18949 1.27166C9.67365 -0.201677 12.0787 -0.201677 13.5628 1.27166L15.4587 3.18916C15.4695 3.19999 15.4912 3.21082 15.502 3.22166Z" fill="#62637B"/>
</svg>
