<svg width="41" height="41" viewBox="0 0 41 41" fill="none" xmlns="http://www.w3.org/2000/svg">
<mask id="mask0_1_654" style="mask-type:alpha" maskUnits="userSpaceOnUse" x="0" y="0" width="41" height="41">
<rect x="0.5" y="0.5" width="40" height="40" fill="#D9D9D9"/>
</mask>
<g mask="url(#mask0_1_654)">
<g filter="url(#filter0_i_1_654)">
<path d="M37.2229 21.8259L39.5295 24.0892C39.8476 24.3983 39.8476 24.8968 39.5295 25.2059L29.14 35.4057C28.8219 35.7148 28.3148 35.7148 28.0066 35.4057L20.6395 28.1672C20.56 28.0874 20.4308 28.0874 20.3512 28.1672L12.9841 35.4057C12.666 35.7148 12.1589 35.7148 11.8507 35.4057L1.46127 25.2059C1.14312 24.8968 1.14312 24.3983 1.46127 24.0892L3.76783 21.8259C4.08598 21.5168 4.59302 21.5168 4.90123 21.8259L12.2683 29.0645C12.3478 29.1443 12.4771 29.1443 12.5566 29.0645L19.9237 21.8259C20.2419 21.5168 20.7489 21.5168 21.0571 21.8259L28.4242 29.0645C28.5037 29.1443 28.633 29.1443 28.7125 29.0645L36.0796 21.8259C36.3978 21.5168 36.9048 21.5168 37.2229 21.8259Z" fill="#5D5C7E" fill-opacity="0.6"/>
</g>
<g filter="url(#filter1_i_1_654)">
<path d="M9.11667 10.2216C15.4001 4.04984 25.5907 4.04984 31.8741 10.2216L32.6297 10.9594C32.9478 11.2685 32.9478 11.767 32.6297 12.0761L30.0448 14.6186C29.8857 14.7681 29.6371 14.7681 29.4781 14.6186L28.4341 13.5916C24.0497 9.28434 16.9411 9.28434 12.5566 13.5916L11.4431 14.6883C11.284 14.8379 11.0355 14.8379 10.8764 14.6883L8.28154 12.1558C7.96339 11.8468 7.96339 11.3482 8.28154 11.0391L9.11667 10.2216ZM37.2229 15.476L39.5295 17.7393C39.8477 18.0484 39.8477 18.5469 39.5295 18.856L29.14 29.0558C28.8219 29.3649 28.3148 29.3649 28.0066 29.0558L20.6395 21.8172C20.56 21.7375 20.4308 21.7375 20.3512 21.8172L12.9841 29.0558C12.666 29.3649 12.1589 29.3649 11.8507 29.0558L1.46127 18.856C1.14312 18.5469 1.14312 18.0484 1.46127 17.7393L3.76783 15.476C4.08598 15.1669 4.59302 15.1669 4.90123 15.476L12.2683 22.7146C12.3478 22.7943 12.4771 22.7943 12.5566 22.7146L19.9237 15.476C20.2419 15.1669 20.7489 15.1669 21.0571 15.476L28.4242 22.7146C28.5037 22.7943 28.633 22.7943 28.7125 22.7146L36.0796 15.476C36.3978 15.1669 36.9048 15.1669 37.2229 15.476Z" fill="url(#paint0_linear_1_654)"/>
</g>
<g filter="url(#filter2_i_1_654)">
<path d="M9.11667 10.2216C15.4001 4.04984 25.5907 4.04984 31.8741 10.2216L32.6297 10.9594C32.9478 11.2685 32.9478 11.767 32.6297 12.0761L30.0448 14.6186C29.8857 14.7681 29.6371 14.7681 29.4781 14.6186L28.4341 13.5916C24.0497 9.28434 16.9411 9.28434 12.5566 13.5916L11.4431 14.6883C11.284 14.8379 11.0355 14.8379 10.8764 14.6883L8.28154 12.1558C7.96339 11.8468 7.96339 11.3482 8.28154 11.0391L9.11667 10.2216ZM37.2229 15.476L39.5295 17.7393C39.8477 18.0484 39.8477 18.5469 39.5295 18.856L29.14 29.0558C28.8219 29.3649 28.3148 29.3649 28.0066 29.0558L20.6395 21.8172C20.56 21.7375 20.4308 21.7375 20.3512 21.8172L12.9841 29.0558C12.666 29.3649 12.1589 29.3649 11.8507 29.0558L1.46127 18.856C1.14312 18.5469 1.14312 18.0484 1.46127 17.7393L3.76783 15.476C4.08598 15.1669 4.59302 15.1669 4.90123 15.476L12.2683 22.7146C12.3478 22.7943 12.4771 22.7943 12.5566 22.7146L19.9237 15.476C20.2419 15.1669 20.7489 15.1669 21.0571 15.476L28.4242 22.7146C28.5037 22.7943 28.633 22.7943 28.7125 22.7146L36.0796 15.476C36.3978 15.1669 36.9048 15.1669 37.2229 15.476Z" fill="url(#paint1_linear_1_654)"/>
</g>
</g>
<defs>
<filter id="filter0_i_1_654" x="1.22266" y="21.5941" width="38.5455" height="14.0435" filterUnits="userSpaceOnUse" color-interpolation-filters="sRGB">
<feFlood flood-opacity="0" result="BackgroundImageFix"/>
<feBlend mode="normal" in="SourceGraphic" in2="BackgroundImageFix" result="shape"/>
<feColorMatrix in="SourceAlpha" type="matrix" values="0 0 0 0 0 0 0 0 0 0 0 0 0 0 0 0 0 0 127 0" result="hardAlpha"/>
<feOffset dy="-2"/>
<feComposite in2="hardAlpha" operator="arithmetic" k2="-1" k3="1"/>
<feColorMatrix type="matrix" values="0 0 0 0 0.199294 0 0 0 0 0.193958 0 0 0 0 0.316667 0 0 0 0.84 0"/>
<feBlend mode="darken" in2="shape" result="effect1_innerShadow_1_654"/>
</filter>
<filter id="filter1_i_1_654" x="1.22266" y="5.59277" width="38.5455" height="23.6948" filterUnits="userSpaceOnUse" color-interpolation-filters="sRGB">
<feFlood flood-opacity="0" result="BackgroundImageFix"/>
<feBlend mode="normal" in="SourceGraphic" in2="BackgroundImageFix" result="shape"/>
<feColorMatrix in="SourceAlpha" type="matrix" values="0 0 0 0 0 0 0 0 0 0 0 0 0 0 0 0 0 0 127 0" result="hardAlpha"/>
<feOffset dy="-2"/>
<feComposite in2="hardAlpha" operator="arithmetic" k2="-1" k3="1"/>
<feColorMatrix type="matrix" values="0 0 0 0 0.627451 0 0 0 0 0.227451 0 0 0 0 0.368627 0 0 0 1 0"/>
<feBlend mode="normal" in2="shape" result="effect1_innerShadow_1_654"/>
</filter>
<filter id="filter2_i_1_654" x="1.22266" y="5.59277" width="38.5455" height="23.6948" filterUnits="userSpaceOnUse" color-interpolation-filters="sRGB">
<feFlood flood-opacity="0" result="BackgroundImageFix"/>
<feBlend mode="normal" in="SourceGraphic" in2="BackgroundImageFix" result="shape"/>
<feColorMatrix in="SourceAlpha" type="matrix" values="0 0 0 0 0 0 0 0 0 0 0 0 0 0 0 0 0 0 127 0" result="hardAlpha"/>
<feOffset dy="-2"/>
<feComposite in2="hardAlpha" operator="arithmetic" k2="-1" k3="1"/>
<feColorMatrix type="matrix" values="0 0 0 0 0.627451 0 0 0 0 0.227451 0 0 0 0 0.368627 0 0 0 1 0"/>
<feBlend mode="normal" in2="shape" result="effect1_innerShadow_1_654"/>
</filter>
<linearGradient id="paint0_linear_1_654" x1="39.4638" y1="17.173" x2="2.53962" y2="17.3462" gradientUnits="userSpaceOnUse">
<stop stop-color="#9644FF"/>
<stop offset="0.505208" stop-color="#F33484"/>
<stop offset="1" stop-color="#FF7A7A"/>
</linearGradient>
<linearGradient id="paint1_linear_1_654" x1="39.4638" y1="17.173" x2="2.53962" y2="17.3462" gradientUnits="userSpaceOnUse">
<stop stop-color="#9644FF"/>
<stop offset="0.505208" stop-color="#F33484"/>
<stop offset="1" stop-color="#FF7A7A"/>
</linearGradient>
</defs>
</svg>
